<?xml version="1.0" encoding="UTF-8" standalone="no"?>
<!-- Created with Inkscape (http://www.inkscape.org/) -->

<svg
   width="81.25132mm"
   height="81.142792mm"
   viewBox="0 0 81.25132 81.142792"
   version="1.1"
   id="svg5"
   xml:space="preserve"
   sodipodi:docname="source.svg"
   inkscape:version="1.2.2 (b0a8486541, 2022-12-01)"
   xmlns:inkscape="http://www.inkscape.org/namespaces/inkscape"
   xmlns:sodipodi="http://sodipodi.sourceforge.net/DTD/sodipodi-0.dtd"
   xmlns="http://www.w3.org/2000/svg"
   xmlns:svg="http://www.w3.org/2000/svg"><sodipodi:namedview
     id="namedview7"
     pagecolor="#ffffff"
     bordercolor="#000000"
     borderopacity="0.25"
     inkscape:showpageshadow="2"
     inkscape:pageopacity="0.0"
     inkscape:pagecheckerboard="0"
     inkscape:deskcolor="#d1d1d1"
     inkscape:document-units="mm"
     showgrid="false"
     showguides="true"
     inkscape:zoom="4.2431962"
     inkscape:cx="-1384.8052"
     inkscape:cy="421.38047"
     inkscape:window-width="1536"
     inkscape:window-height="828"
     inkscape:window-x="2071"
     inkscape:window-y="114"
     inkscape:window-maximized="0"
     inkscape:current-layer="g11754"><inkscape:grid
       type="xygrid"
       id="grid648" /></sodipodi:namedview><defs
     id="defs2" /><g
     inkscape:label="Layer 1"
     inkscape:groupmode="layer"
     id="layer1"
     transform="translate(127.67565,-144.99055)"><g
       id="g11894"
       transform="translate(356.74975,-200.86881)"><ellipse
         style="fill:none;fill-opacity:1;stroke:#ffffff;stroke-width:1;stroke-linecap:square;stroke-linejoin:round;stroke-dasharray:none;stroke-dashoffset:7.46987;stroke-opacity:1;paint-order:stroke markers fill"
         id="ellipse11804"
         cx="-443.79974"
         cy="386.43076"
         rx="40.12566"
         ry="40.071392" /></g><path
       style="fill:#ffffff;fill-opacity:1;stroke-width:0.253326"
       d="m -106.2045,207.36022 c -0.29424,-0.1189 -0.77873,-0.52603 -1.07662,-0.90476 -0.53562,-0.68092 -0.54165,-0.81925 -0.54165,-12.43409 0,-6.46004 -0.0611,-11.74552 -0.13555,-11.74552 -0.0746,0 -1.1179,0.74098 -2.31857,1.64662 -1.20066,0.90565 -2.42783,1.64663 -2.72705,1.64663 -1.27561,0 -1.5354,-1.32456 -0.45535,-2.32162 1.35226,-1.24836 26.100909,-19.71778 26.421412,-19.71778 0.319208,0 25.03364,18.4617 26.397148,19.71868 1.080173,0.99579 0.820198,2.32072 -0.455354,2.32072 -0.299212,0 -1.526375,-0.74098 -2.727049,-1.64663 -1.200663,-0.90564 -2.231353,-1.64662 -2.290422,-1.64662 -0.05905,0 -0.102094,0.14249 -0.09563,0.31665 0.0071,0.17416 -0.0059,5.47323 -0.02811,11.77568 -0.03987,11.45904 -0.03987,11.45904 -0.778714,12.28633 -0.738816,0.82732 -0.738816,0.82732 -7.620973,0.90591 -5.941199,0.0677 -6.965855,0.0238 -7.494297,-0.3225 -0.612129,-0.40109 -0.612129,-0.40109 -0.612129,-9.26168 v -8.86058 h -4.306554 -4.306554 v 8.85207 c 0,8.85205 0,8.85205 -0.563023,9.2464 -0.476101,0.33349 -1.580821,0.39188 -7.156461,0.37829 -3.6264,-0.008 -6.83419,-0.11326 -7.12844,-0.2322 z m 12.314681,-10.50619 c 0,-8.85013 0.05458,-9.26484 1.303369,-9.91064 0.914223,-0.47276 9.97491,-0.52087 10.990039,-0.0583 1.331679,0.60675 1.38622,0.99816 1.38622,9.94925 v 8.25045 l 5.763169,-0.0681 5.763181,-0.0681 0.06563,-12.31644 0.06563,-12.31643 -9.013674,-6.7613 c -4.957521,-3.71873 -9.153053,-6.8148 -9.32339,-6.88016 -0.170337,-0.0654 -4.351544,2.9122 -9.291545,6.61684 l -8.98182,6.73568 -0.12667,12.41887 c -0.0697,6.83036 -0.0792,12.46628 -0.021,12.52423 0.058,0.058 2.65148,0.10539 5.76318,0.10539 h 5.657611 z"
       id="path3083" /></g></svg>
