<?xml version="1.0" encoding="UTF-8" standalone="no"?>
<!-- Created with Inkscape (http://www.inkscape.org/) -->

<svg
   width="81.251312mm"
   height="81.142784mm"
   viewBox="0 0 81.251312 81.142784"
   version="1.1"
   id="svg5"
   xml:space="preserve"
   sodipodi:docname="source.svg"
   inkscape:version="1.2.2 (b0a8486541, 2022-12-01)"
   xmlns:inkscape="http://www.inkscape.org/namespaces/inkscape"
   xmlns:sodipodi="http://sodipodi.sourceforge.net/DTD/sodipodi-0.dtd"
   xmlns="http://www.w3.org/2000/svg"
   xmlns:svg="http://www.w3.org/2000/svg"><sodipodi:namedview
     id="namedview7"
     pagecolor="#ffffff"
     bordercolor="#000000"
     borderopacity="0.25"
     inkscape:showpageshadow="2"
     inkscape:pageopacity="0.0"
     inkscape:pagecheckerboard="0"
     inkscape:deskcolor="#d1d1d1"
     inkscape:document-units="mm"
     showgrid="false"
     showguides="true"
     inkscape:zoom="4.2431962"
     inkscape:cx="-1384.8052"
     inkscape:cy="421.38047"
     inkscape:window-width="1536"
     inkscape:window-height="828"
     inkscape:window-x="2071"
     inkscape:window-y="114"
     inkscape:window-maximized="0"
     inkscape:current-layer="g11754"><inkscape:grid
       type="xygrid"
       id="grid648" /></sodipodi:namedview><defs
     id="defs2" /><g
     inkscape:label="Layer 1"
     inkscape:groupmode="layer"
     id="layer1"
     transform="translate(127.67566,-43.837176)"><g
       id="g11898"
       transform="translate(474.1425,-241.33252)"><ellipse
         style="fill:none;fill-opacity:1;stroke:#ffffff;stroke-width:1;stroke-linecap:square;stroke-linejoin:round;stroke-dasharray:none;stroke-dashoffset:7.46987;stroke-opacity:1;paint-order:stroke markers fill"
         id="ellipse11804-6"
         cx="-561.1925"
         cy="325.74109"
         rx="40.12566"
         ry="40.071392" /></g><path
       style="fill:#ffffff;fill-opacity:1;stroke-width:0.194992"
       d="m -88.96021,108.4146 c -0.94765,-0.4397 -1.36921,-0.89306 -4.18835,-4.50434 -1.21396,-1.55507 -2.24506,-2.87126 -2.29133,-2.92489 -0.0463,-0.0536 -2.51198,-0.14137 -5.47936,-0.19499 -5.39524,-0.0975 -5.39524,-0.0975 -6.61835,-0.66233 -1.58388,-0.731437 -3.33055,-2.555744 -3.97403,-4.150652 -0.45763,-1.134275 -0.45763,-1.134275 -0.45763,-15.661182 V 65.789309 l 0.61705,-1.302472 c 0.85884,-1.812824 1.96429,-2.941951 3.73899,-3.81905 l 1.47348,-0.72824 h 19.03197 19.03194 l 1.4735,0.72824 c 1.77468,0.877099 2.88014,2.006226 3.73898,3.81905 0.61706,1.302472 0.61706,1.302472 0.6748,10.424344 l 0.0055,17.663784 -0.526657,-0.760027 c -0.609846,-0.880077 -3.027951,2.425195 -3.33151,1.404783 0,0 0.09013,-8.969478 -0.0074,-17.939774 -0.0975,-8.970295 -0.0975,-8.970295 -0.68247,-9.800473 -0.32174,-0.456598 -0.97169,-1.034344 -1.44436,-1.283881 -0.85938,-0.4537 -0.85938,-0.4537 -18.93231,-0.4537 -18.072923,0 -18.072923,0 -18.932313,0.4537 -0.47265,0.249537 -1.12262,0.8274 -1.44435,1.28414 l -0.58499,0.830436 -0.0546,13.681501 c -0.061,15.302246 -0.10999,14.704561 1.31063,15.98798 1.08424,0.979538 1.98986,1.105883 7.926963,1.105883 5.09949,0 5.17218,0.0057 5.59999,0.438732 0.2384,0.241302 1.65211,1.996231 3.14158,3.899845 1.49497,1.91063 2.84769,3.4611 3.01967,3.4611 0.17299,0 1.59939,-1.64952 3.20722,-3.70891 1.59262,-2.039898 3.05622,-3.794827 3.25242,-3.899837 0.20656,-0.110545 2.49262,-0.19093 5.42978,-0.19093 5.69631,0 6.7416,-0.138027 7.74993,-1.023362 0.86639,-0.7607 1.126644,-1.483033 1.44458,-2.84245 0.501647,-2.144918 0.259007,-2.589128 1.524478,-2.51322 0.613297,0.03679 1.340172,0.641582 1.807032,1.108437 0.56641,0.566412 0.60748,0.672027 0.51047,1.820313 -0.23511,2.782776 -2.00687,5.351274 -4.47877,6.492799 -1.2231,0.56484 -1.2231,0.56484 -6.62328,0.62222 l -5.40017,0.0574 -2.62119,3.35498 c -1.44163,1.84523 -2.78787,3.50519 -2.9916,3.68878 -1.05298,0.9488 -3.24279,1.21426 -4.64601,0.56319 z m 0.5471,-17.454435 c -0.5471,-0.470596 -0.5471,-0.470596 -0.5471,-6.646611 0,-6.176017 0,-6.176017 0.5471,-6.646614 0.74208,-0.638303 1.86858,-0.638303 2.61065,0 0.5471,0.470597 0.5471,0.470597 0.5471,6.646614 0,6.176015 0,6.176015 -0.5471,6.646611 -0.37549,0.322987 -0.78493,0.470597 -1.30531,0.470597 -0.5204,0 -0.92984,-0.14761 -1.30534,-0.470597 z m 0.35183,-16.960815 c -1.69046,-0.936953 -0.98323,-3.627728 0.95351,-3.627728 0.98799,0 1.94992,0.952618 1.94992,1.931062 0,1.463887 -1.61777,2.409253 -2.90343,1.696666 z"
       id="path3558"
       sodipodi:nodetypes="cscsssscsscccssccssssssssccssssssssssssssscscccssssssssssss" /></g></svg>
