<?xml version="1.0" encoding="UTF-8" standalone="no"?>
<!-- Created with Inkscape (http://www.inkscape.org/) -->

<svg
   width="81.25132mm"
   height="81.142761mm"
   viewBox="0 0 81.25132 81.142761"
   version="1.1"
   id="svg5"
   xml:space="preserve"
   sodipodi:docname="source.svg"
   inkscape:version="1.2.2 (b0a8486541, 2022-12-01)"
   xmlns:inkscape="http://www.inkscape.org/namespaces/inkscape"
   xmlns:sodipodi="http://sodipodi.sourceforge.net/DTD/sodipodi-0.dtd"
   xmlns="http://www.w3.org/2000/svg"
   xmlns:svg="http://www.w3.org/2000/svg"><sodipodi:namedview
     id="namedview7"
     pagecolor="#ffffff"
     bordercolor="#000000"
     borderopacity="0.25"
     inkscape:showpageshadow="2"
     inkscape:pageopacity="0.0"
     inkscape:pagecheckerboard="0"
     inkscape:deskcolor="#d1d1d1"
     inkscape:document-units="mm"
     showgrid="false"
     showguides="true"
     inkscape:zoom="4.2431962"
     inkscape:cx="-1384.8052"
     inkscape:cy="421.38047"
     inkscape:window-width="1536"
     inkscape:window-height="828"
     inkscape:window-x="2071"
     inkscape:window-y="114"
     inkscape:window-maximized="0"
     inkscape:current-layer="g11754"><inkscape:grid
       type="xygrid"
       id="grid648" /></sodipodi:namedview><defs
     id="defs2" /><g
     inkscape:label="Layer 1"
     inkscape:groupmode="layer"
     id="layer1"
     transform="translate(127.67565,-245.6451)"><ellipse
       style="fill:none;fill-opacity:1;stroke:#ffffff;stroke-width:1;stroke-linecap:square;stroke-linejoin:round;stroke-dasharray:none;stroke-dashoffset:7.46987;stroke-opacity:1;paint-order:stroke markers fill"
       id="path11418"
       cx="-87.049995"
       cy="286.21649"
       rx="40.12566"
       ry="40.071392" /><path
       style="fill:#ffffff;fill-opacity:1;stroke-width:0.186449"
       d="m -97.829034,309.70478 c -0.706551,-0.43077 -1.152808,-1.34356 -1.156953,-2.36647 -0.0034,-0.8941 -0.135408,-1.09229 -0.953666,-1.43419 -0.656057,-0.27411 -0.674967,-0.26893 -1.623507,0.44377 -1.27026,0.95446 -1.8695,1.07357 -2.89745,0.57595 -0.99726,-0.48276 -3.00601,-2.53913 -3.39892,-3.47947 -0.39557,-0.94675 -0.2179,-1.67714 0.66906,-2.75049 0.74068,-0.89632 0.74112,-0.89781 0.45845,-1.57432 -0.34769,-0.83214 -0.54315,-0.96344 -1.43977,-0.96706 -1.02291,-0.005 -1.9357,-0.45039 -2.36648,-1.15694 -0.31891,-0.52309 -0.37638,-0.9398 -0.37698,-2.73319 -7.1e-4,-3.09247 0.50156,-3.84922 2.70756,-4.07691 1.10315,-0.11384 1.23568,-0.21046 1.54331,-1.12517 0.18999,-0.56486 0.15507,-0.66214 -0.51579,-1.43724 -1.43282,-1.65551 -1.22933,-2.55426 1.09283,-4.82662 1.63319,-1.59816 1.65827,-1.61376 2.59406,-1.61376 0.83727,0 1.04485,0.0865 1.82217,0.75927 0.93301,0.80751 1.33682,0.85188 2.268469,0.24929 0.334391,-0.2163 0.419504,-0.44446 0.419504,-1.12451 0,-1.10175 0.412328,-1.95203 1.168341,-2.40932 0.850192,-0.51425 4.827052,-0.53972 5.596097,-0.0358 0.748341,0.49035 1.057703,1.07828 1.210322,2.30025 0.128052,1.02528 0.184588,1.12517 0.833724,1.47277 0.490255,0.26253 0.771524,0.31771 0.950287,0.18645 0.139655,-0.1025 0.614635,-0.45913 1.055507,-0.79241 0.858866,-0.64925 1.877921,-0.80143 2.669011,-0.39857 0.588152,0.29952 2.904805,2.5933 3.217816,3.18606 0.460123,0.87134 0.337985,1.86227 -0.34009,2.75925 -0.333276,0.44087 -0.68168,0.90263 -0.774215,1.02612 -0.106448,0.14211 -0.03807,0.49119 0.186457,0.95104 0.336801,0.68987 0.410199,0.73342 1.454577,0.86312 1.22171,0.15175 1.809727,0.46095 2.300241,1.20956 0.47115,0.71908 0.478911,4.71921 0.01126,5.57398 -0.399374,0.72928 -1.35081,1.19045 -2.455947,1.19045 -0.680069,0 -0.908215,0.0852 -1.124511,0.41951 -0.602605,0.93165 -0.558235,1.33546 0.249289,2.26847 0.672769,0.77732 0.759256,0.98489 0.759256,1.82217 0,0.93579 -0.01566,0.96087 -1.613763,2.59406 -2.27386,2.3237 -3.170755,2.52594 -4.83069,1.08929 -0.724337,-0.62691 -0.898562,-0.6991 -1.309955,-0.54268 -1.048106,0.39848 -1.138716,0.51119 -1.245895,1.54966 -0.233227,2.25974 -0.939496,2.73267 -4.079387,2.73164 -1.793383,-5.5e-4 -2.210104,-0.058 -2.733183,-0.37698 z m 4.92496,-1.35054 c 0.07874,-0.0788 0.202363,-0.64617 0.274815,-1.26062 0.169335,-1.43608 0.534534,-1.97082 1.724344,-2.5248 1.496705,-0.69686 2.438972,-0.54605 3.467591,0.55499 0.248613,0.26611 0.628275,0.48384 0.843693,0.48384 0.45707,0 3.085867,-2.55709 3.085867,-3.00169 0,-0.15918 -0.217727,-0.49281 -0.483833,-0.74143 -1.056814,-0.98729 -1.270711,-2.14259 -0.659027,-3.55959 0.518325,-1.20073 0.971677,-1.5166 2.386964,-1.66308 0.709717,-0.0734 1.291887,-0.23378 1.385493,-0.38154 0.25321,-0.39967 0.205483,-3.96418 -0.05655,-4.22624 -0.123051,-0.12305 -0.61406,-0.22373 -1.091124,-0.22373 -1.613031,0 -2.973484,-1.50577 -2.973484,-3.29106 0,-0.65162 0.129212,-0.93747 0.745807,-1.64988 0.410188,-0.47394 0.745795,-0.99735 0.745795,-1.16312 0,-0.39268 -2.639351,-3.03202 -3.032012,-3.03202 -0.165776,0 -0.689182,0.33561 -1.163114,0.74581 -0.71242,0.61658 -0.998262,0.7458 -1.649888,0.7458 -1.785296,0 -3.291046,-1.36046 -3.291046,-2.97349 0,-0.47706 -0.100702,-0.96807 -0.223742,-1.09113 -0.262063,-0.26205 -3.82656,-0.30978 -4.226239,-0.0565 -0.147764,0.0936 -0.308077,0.67577 -0.381543,1.38549 -0.14648,1.41528 -0.462353,1.86863 -1.663089,2.38697 -1.416984,0.61168 -2.572304,0.39778 -3.559594,-0.65903 -0.24861,-0.26611 -0.58632,-0.48384 -0.75046,-0.48384 -0.44043,0 -2.99266,2.63945 -2.99266,3.09492 0,0.21045 0.21773,0.58605 0.48385,0.83465 1.10105,1.02862 1.25185,1.97088 0.55499,3.46759 -0.55398,1.18981 -1.08872,1.55502 -2.52479,1.72434 -0.61447,0.0724 -1.18175,0.19626 -1.26061,0.27513 -0.2338,0.2338 -0.1713,3.98126 0.0704,4.22298 0.1176,0.11761 0.70493,0.27336 1.30516,0.34612 1.49783,0.18157 1.89061,0.44554 2.43619,1.63725 0.62259,1.35993 0.51689,2.22419 -0.39557,3.23418 -0.3683,0.40766 -0.66963,0.88581 -0.66963,1.06255 0,0.42506 2.60083,3.03367 3.02461,3.03367 0.18173,0 0.66396,-0.30133 1.07161,-0.66962 1.01065,-0.91306 1.87409,-1.01825 3.236917,-0.39432 1.146139,0.52471 1.616478,1.18068 1.616478,2.25447 0,0.87586 0.279692,1.55435 0.688596,1.67045 0.508683,0.14442 3.735072,0.0498 3.898854,-0.1144 z m -4.307769,-7.40659 c -4.070217,-1.36477 -6.040247,-5.90547 -4.235457,-9.76223 2.148088,-4.59034 8.126122,-5.54808 11.613572,-1.86062 2.072928,2.19181 2.522395,5.20502 1.215436,8.14809 -0.559192,1.25921 -1.5813,2.22564 -3.207915,3.03318 -1.731329,0.85954 -3.666067,1.01816 -5.385636,0.44158 z m 4.697355,-1.8882 c 2.479321,-1.18066 3.647661,-4.09157 2.727855,-6.79638 -0.212601,-0.62516 -0.645273,-1.252 -1.353603,-1.96109 -1.314596,-1.31598 -2.465308,-1.74932 -4.297226,-1.61824 -5.430198,0.38852 -7.036398,7.55885 -2.313275,10.32679 1.579487,0.92563 3.360254,0.94228 5.236249,0.0489 z m 16.897464,0.53932 c -1.416605,-1.38921 -1.743877,-1.81108 -1.699552,-2.19078 0.04337,-0.37124 0.172693,-0.48156 0.614252,-0.52391 0.481367,-0.0462 0.766702,0.15531 2.046581,1.44498 0.817977,0.82426 1.61988,1.49864 1.782018,1.49864 0.275625,0 4.281985,-3.90076 4.281985,-4.16911 0,-0.0677 -0.583725,-0.75248 -1.297158,-1.52193 -1.683918,-1.8161 -1.761652,-2.18239 -0.917024,-4.32106 1.000706,-2.53389 1.480845,-2.85296 4.293058,-2.85296 1.40952,0 1.480744,-0.0206 1.654743,-0.47827 0.269329,-0.70838 0.224711,-4.73965 -0.05869,-5.3017 -0.222142,-0.44058 -0.338829,-0.47123 -2.128979,-0.55935 -2.430828,-0.11965 -2.696248,-0.3037 -3.641139,-2.52494 -1.019608,-2.39683 -0.979484,-2.62501 0.785299,-4.46694 0.589515,-0.61528 1.128161,-1.27957 1.196986,-1.47616 0.182819,-0.5223 -3.761825,-4.46694 -4.284126,-4.28412 -0.196607,0.0688 -0.860871,0.60746 -1.47617,1.19697 -1.841921,1.76479 -2.070102,1.8049 -4.466934,0.78531 -2.221234,-0.94489 -2.405292,-1.21033 -2.524941,-3.64114 -0.08809,-1.79014 -0.118781,-1.90684 -0.559349,-2.12898 -0.562064,-0.28339 -4.593319,-0.32801 -5.301694,-0.0587 -0.457679,0.17401 -0.47827,0.24522 -0.47827,1.65474 0,2.81222 -0.319082,3.29236 -2.852978,4.29306 -2.138667,0.84463 -2.504947,0.7669 -4.32105,-0.91701 -0.76944,-0.71346 -1.454318,-1.29717 -1.521926,-1.29717 -0.268349,0 -4.169118,4.00637 -4.169118,4.28199 0,0.16213 0.671226,0.96208 1.491603,1.77763 1.475314,1.46666 1.747887,1.99978 1.267871,2.4798 -0.442685,0.44268 -0.852659,0.19683 -2.538674,-1.52243 -1.7124,-1.74616 -1.7124,-1.74616 -1.7124,-2.73215 v -0.986 l 2.09757,-2.13146 c 1.153666,-1.17229 2.324124,-2.25015 2.601045,-2.39522 1.109811,-0.58141 1.959294,-0.26416 3.498837,1.3067 0.57806,0.58982 1.183244,1.03939 1.398368,1.0388 0.208603,-5.5e-4 0.966587,-0.23914 1.684425,-0.53016 l 1.305145,-0.52913 0.09552,-1.9403 c 0.158544,-3.21951 0.577845,-3.52513 4.836198,-3.52513 3.062685,0 3.551622,0.11957 4.281073,1.04689 0.330584,0.42028 0.389361,0.75322 0.389361,2.2055 0,1.08371 0.08538,1.82068 0.233057,2.01121 0.256003,0.33031 2.368773,1.26216 2.861686,1.26216 0.170079,0 0.882713,-0.54099 1.583632,-1.2022 1.331897,-1.25644 2.079878,-1.57505 3.104689,-1.32247 0.68516,0.16886 4.827492,4.3112 4.996365,4.99635 0.252579,1.02483 -0.06601,1.77281 -1.322469,3.1047 -0.661212,0.70092 -1.202201,1.41354 -1.202201,1.58362 0,0.49292 0.931859,2.60571 1.262161,2.8617 0.190523,0.14766 0.927488,0.23306 2.011211,0.23306 1.452279,0 1.785217,0.0588 2.205486,0.38937 0.927331,0.72943 1.046901,1.21838 1.046901,4.28106 0,4.25836 -0.305633,4.67766 -3.525128,4.83621 l -1.940303,0.0955 -0.529128,1.30516 c -0.291023,0.71784 -0.5296,1.46623 -0.530175,1.66312 -5.52e-4,0.19689 0.539412,0.91777 1.199948,1.60197 2.106327,2.18178 2.011403,2.68668 -1.079601,5.7425 l -2.298799,2.27266 h -0.987358 c -0.987346,0 -0.987346,0 -2.7418,-1.72054 z m -2.716737,-8.36272 c -0.503929,-0.2935 -0.389879,-0.87698 0.337511,-1.7267 2.944782,-3.44004 2.740133,-8.67795 -0.464245,-11.88234 -3.214021,-3.21401 -8.441653,-3.40957 -11.904445,-0.44531 -0.627397,0.53706 -0.898313,0.65743 -1.269876,0.56417 -0.399465,-0.10026 -0.46339,-0.21007 -0.414379,-0.71188 0.04506,-0.4609 0.266051,-0.75163 0.990208,-1.30249 3.267469,-2.48548 7.5062,-2.88506 11.142315,-1.05035 1.538214,0.77617 3.626327,2.86473 4.402998,4.40396 1.730664,3.42989 1.461594,7.45802 -0.71198,10.65874 -0.665921,0.98061 -1.388332,1.70494 -1.683467,1.68792 -0.05407,-0.002 -0.245189,-0.0913 -0.42464,-0.19572 z"
       id="path2613"
       inkscape:export-filename="setup.svg"
       inkscape:export-xdpi="96"
       inkscape:export-ydpi="96" /></g></svg>
